<svg width="80" height="80" viewBox="0 0 80 80" fill="none" xmlns="http://www.w3.org/2000/svg">
<g filter="url(#filter0_d_633_2397)">
<path d="M6 22C6 13.1634 13.1634 6 22 6H54C62.8366 6 70 13.1634 70 22V54C70 62.8366 62.8366 70 54 70H22C13.1634 70 6 62.8366 6 54V22Z" fill="#E8F4FD" shape-rendering="crispEdges"/>
<path d="M43.6533 32.3467L41.248 39.5613C41.1171 39.9541 40.8965 40.311 40.6038 40.6038C40.311 40.8965 39.9541 41.1171 39.5613 41.248L32.3467 43.6533L34.752 36.4387C34.8829 36.0459 35.1035 35.689 35.3962 35.3962C35.689 35.1035 36.0459 34.8829 36.4387 34.752L43.6533 32.3467Z" stroke="#3498DB" stroke-width="2.66667" stroke-linecap="round" stroke-linejoin="round"/>
<path d="M38 51.3334C45.3638 51.3334 51.3334 45.3639 51.3334 38.0001C51.3334 30.6363 45.3638 24.6667 38 24.6667C30.6362 24.6667 24.6667 30.6363 24.6667 38.0001C24.6667 45.3639 30.6362 51.3334 38 51.3334Z" stroke="#3498DB" stroke-width="2.66667" stroke-linecap="round" stroke-linejoin="round"/>
</g>
<defs>
<filter id="filter0_d_633_2397" x="0" y="0" width="80" height="80" filterUnits="userSpaceOnUse" color-interpolation-filters="sRGB">
<feFlood flood-opacity="0" result="BackgroundImageFix"/>
<feColorMatrix in="SourceAlpha" type="matrix" values="0 0 0 0 0 0 0 0 0 0 0 0 0 0 0 0 0 0 127 0" result="hardAlpha"/>
<feOffset dx="2" dy="2"/>
<feGaussianBlur stdDeviation="4"/>
<feComposite in2="hardAlpha" operator="out"/>
<feColorMatrix type="matrix" values="0 0 0 0 0 0 0 0 0 0 0 0 0 0 0 0 0 0 0.1 0"/>
<feBlend mode="normal" in2="BackgroundImageFix" result="effect1_dropShadow_633_2397"/>
<feBlend mode="normal" in="SourceGraphic" in2="effect1_dropShadow_633_2397" result="shape"/>
</filter>
</defs>
</svg>
