<svg width="32" height="32" viewBox="0 0 32 32" fill="none" xmlns="http://www.w3.org/2000/svg">
<path d="M0 16C0 7.16344 7.16344 0 16 0C24.8366 0 32 7.16344 32 16C32 24.8366 24.8366 32 16 32C7.16344 32 0 24.8366 0 16Z" fill="url(#paint0_linear_630_1866)"/>
<path d="M15.708 10.1774C15.7367 10.1252 15.779 10.0816 15.8304 10.0512C15.8817 10.0209 15.9403 10.0049 16 10.0049C16.0596 10.0049 16.1182 10.0209 16.1695 10.0512C16.2209 10.0816 16.2632 10.1252 16.292 10.1774L18.26 13.9134C18.3069 14 18.3724 14.075 18.4518 14.1332C18.5311 14.1914 18.6224 14.2313 18.719 14.25C18.8156 14.2688 18.9152 14.2659 19.0106 14.2416C19.106 14.2173 19.1948 14.1721 19.2706 14.1094L22.122 11.6668C22.1767 11.6223 22.2441 11.5963 22.3146 11.5925C22.3851 11.5888 22.4549 11.6075 22.514 11.6459C22.5732 11.6844 22.6186 11.7407 22.6437 11.8066C22.6689 11.8725 22.6725 11.9447 22.654 12.0128L20.7646 18.8434C20.7261 18.9832 20.643 19.1066 20.528 19.1949C20.413 19.2832 20.2723 19.3316 20.1273 19.3328H11.8733C11.7282 19.3318 11.5874 19.2834 11.4722 19.1951C11.3571 19.1068 11.2739 18.9833 11.2353 18.8434L9.34662 12.0134C9.32812 11.9454 9.3317 11.8732 9.35685 11.8072C9.382 11.7413 9.42741 11.6851 9.48656 11.6466C9.5457 11.6081 9.61553 11.5894 9.68598 11.5932C9.75644 11.5969 9.82389 11.6229 9.87862 11.6674L12.7293 14.1101C12.8052 14.1728 12.894 14.2179 12.9893 14.2422C13.0847 14.2665 13.1843 14.2694 13.2809 14.2507C13.3775 14.2319 13.4688 14.1921 13.5482 14.1339C13.6275 14.0757 13.693 14.0006 13.74 13.9141L15.708 10.1774Z" stroke="white" stroke-width="1.33333" stroke-linecap="round" stroke-linejoin="round"/>
<path d="M11.3335 22H20.6668" stroke="white" stroke-width="1.33333" stroke-linecap="round" stroke-linejoin="round"/>
<defs>
<linearGradient id="paint0_linear_630_1866" x1="16" y1="0" x2="16" y2="32" gradientUnits="userSpaceOnUse">
<stop stop-color="#FF9500"/>
<stop offset="1" stop-color="#FF6B00"/>
</linearGradient>
</defs>
</svg>
