<svg width="80" height="80" viewBox="0 0 80 80" fill="none" xmlns="http://www.w3.org/2000/svg">
<g filter="url(#filter0_d_633_2319)">
<path d="M6 22C6 13.1634 13.1634 6 22 6H54C62.8366 6 70 13.1634 70 22V54C70 62.8366 62.8366 70 54 70H22C13.1634 70 6 62.8366 6 54V22Z" fill="#E8F9F0" shape-rendering="crispEdges"/>
<path d="M30 51.3334C29.2927 51.3334 28.6145 51.0525 28.1144 50.5524C27.6143 50.0523 27.3333 49.374 27.3333 48.6668V27.3334C27.3333 26.6262 27.6143 25.9479 28.1144 25.4478C28.6145 24.9477 29.2927 24.6668 30 24.6668H40.6666C41.0887 24.6661 41.5068 24.7489 41.8967 24.9104C42.2866 25.072 42.6407 25.3091 42.9386 25.6081L47.7226 30.3921C48.0224 30.6901 48.2602 31.0445 48.4222 31.435C48.5843 31.8254 48.6673 32.244 48.6666 32.6668V48.6668C48.6666 49.374 48.3857 50.0523 47.8856 50.5524C47.3855 51.0525 46.7072 51.3334 46 51.3334H30Z" stroke="#19BD66" stroke-width="2.66667" stroke-linecap="round" stroke-linejoin="round"/>
<path d="M40.6667 24.6667V31.3334C40.6667 31.687 40.8072 32.0262 41.0572 32.2762C41.3073 32.5263 41.6464 32.6667 42 32.6667H48.6667" stroke="#19BD66" stroke-width="2.66667" stroke-linecap="round" stroke-linejoin="round"/>
<path d="M35.3334 34H32.6667" stroke="#19BD66" stroke-width="2.66667" stroke-linecap="round" stroke-linejoin="round"/>
<path d="M43.3334 39.3333H32.6667" stroke="#19BD66" stroke-width="2.66667" stroke-linecap="round" stroke-linejoin="round"/>
<path d="M43.3334 44.6667H32.6667" stroke="#19BD66" stroke-width="2.66667" stroke-linecap="round" stroke-linejoin="round"/>
</g>
<defs>
<filter id="filter0_d_633_2319" x="0" y="0" width="80" height="80" filterUnits="userSpaceOnUse" color-interpolation-filters="sRGB">
<feFlood flood-opacity="0" result="BackgroundImageFix"/>
<feColorMatrix in="SourceAlpha" type="matrix" values="0 0 0 0 0 0 0 0 0 0 0 0 0 0 0 0 0 0 127 0" result="hardAlpha"/>
<feOffset dx="2" dy="2"/>
<feGaussianBlur stdDeviation="4"/>
<feComposite in2="hardAlpha" operator="out"/>
<feColorMatrix type="matrix" values="0 0 0 0 0 0 0 0 0 0 0 0 0 0 0 0 0 0 0.1 0"/>
<feBlend mode="normal" in2="BackgroundImageFix" result="effect1_dropShadow_633_2319"/>
<feBlend mode="normal" in="SourceGraphic" in2="effect1_dropShadow_633_2319" result="shape"/>
</filter>
</defs>
</svg>
