<svg width="80" height="80" viewBox="0 0 80 80" fill="none" xmlns="http://www.w3.org/2000/svg">
<g filter="url(#filter0_d_633_2339)">
<path d="M6 22C6 13.1634 13.1634 6 22 6H54C62.8366 6 70 13.1634 70 22V54C70 62.8366 62.8366 70 54 70H22C13.1634 70 6 62.8366 6 54V22Z" fill="#FFF3E0" shape-rendering="crispEdges"/>
<path d="M38 42V26" stroke="#FF9500" stroke-width="2.66667" stroke-linecap="round" stroke-linejoin="round"/>
<path d="M50 42V47.3333C50 48.0406 49.719 48.7189 49.219 49.219C48.7189 49.719 48.0406 50 47.3333 50H28.6667C27.9594 50 27.2811 49.719 26.781 49.219C26.281 48.7189 26 48.0406 26 47.3333V42" stroke="#FF9500" stroke-width="2.66667" stroke-linecap="round" stroke-linejoin="round"/>
<path d="M31.3333 35.3333L38 41.9999L44.6666 35.3333" stroke="#FF9500" stroke-width="2.66667" stroke-linecap="round" stroke-linejoin="round"/>
</g>
<defs>
<filter id="filter0_d_633_2339" x="0" y="0" width="80" height="80" filterUnits="userSpaceOnUse" color-interpolation-filters="sRGB">
<feFlood flood-opacity="0" result="BackgroundImageFix"/>
<feColorMatrix in="SourceAlpha" type="matrix" values="0 0 0 0 0 0 0 0 0 0 0 0 0 0 0 0 0 0 127 0" result="hardAlpha"/>
<feOffset dx="2" dy="2"/>
<feGaussianBlur stdDeviation="4"/>
<feComposite in2="hardAlpha" operator="out"/>
<feColorMatrix type="matrix" values="0 0 0 0 0 0 0 0 0 0 0 0 0 0 0 0 0 0 0.1 0"/>
<feBlend mode="normal" in2="BackgroundImageFix" result="effect1_dropShadow_633_2339"/>
<feBlend mode="normal" in="SourceGraphic" in2="effect1_dropShadow_633_2339" result="shape"/>
</filter>
</defs>
</svg>
