<svg width="80" height="80" viewBox="0 0 80 80" fill="none" xmlns="http://www.w3.org/2000/svg">
<g filter="url(#filter0_d_633_2359)">
<path d="M6 22C6 13.1634 13.1634 6 22 6H54C62.8366 6 70 13.1634 70 22V54C70 62.8366 62.8366 70 54 70H22C13.1634 70 6 62.8366 6 54V22Z" fill="#F3E8FF" shape-rendering="crispEdges"/>
<path d="M51.3333 31.3333L39.3453 38.9693C38.9385 39.2055 38.4764 39.33 38.006 39.33C37.5355 39.33 37.0735 39.2055 36.6667 38.9693L24.6667 31.3333" stroke="#9B59B6" stroke-width="2.66667" stroke-linecap="round" stroke-linejoin="round"/>
<path d="M48.6667 27.3333H27.3333C25.8606 27.3333 24.6667 28.5272 24.6667 29.9999V45.9999C24.6667 47.4727 25.8606 48.6666 27.3333 48.6666H48.6667C50.1394 48.6666 51.3333 47.4727 51.3333 45.9999V29.9999C51.3333 28.5272 50.1394 27.3333 48.6667 27.3333Z" stroke="#9B59B6" stroke-width="2.66667" stroke-linecap="round" stroke-linejoin="round"/>
</g>
<defs>
<filter id="filter0_d_633_2359" x="0" y="0" width="80" height="80" filterUnits="userSpaceOnUse" color-interpolation-filters="sRGB">
<feFlood flood-opacity="0" result="BackgroundImageFix"/>
<feColorMatrix in="SourceAlpha" type="matrix" values="0 0 0 0 0 0 0 0 0 0 0 0 0 0 0 0 0 0 127 0" result="hardAlpha"/>
<feOffset dx="2" dy="2"/>
<feGaussianBlur stdDeviation="4"/>
<feComposite in2="hardAlpha" operator="out"/>
<feColorMatrix type="matrix" values="0 0 0 0 0 0 0 0 0 0 0 0 0 0 0 0 0 0 0.1 0"/>
<feBlend mode="normal" in2="BackgroundImageFix" result="effect1_dropShadow_633_2359"/>
<feBlend mode="normal" in="SourceGraphic" in2="effect1_dropShadow_633_2359" result="shape"/>
</filter>
</defs>
</svg>
