<svg width="80" height="80" viewBox="0 0 80 80" fill="none" xmlns="http://www.w3.org/2000/svg">
<path d="M0 40C0 17.9086 17.9086 0 40 0C62.0914 0 80 17.9086 80 40C80 62.0914 62.0914 80 40 80C17.9086 80 0 62.0914 0 40Z" fill="url(#paint0_linear_633_2663)"/>
<path d="M38.3617 24.69C38.4331 24.3077 38.636 23.9624 38.9352 23.7139C39.2344 23.4654 39.6111 23.3293 40 23.3293C40.3889 23.3293 40.7656 23.4654 41.0648 23.7139C41.364 23.9624 41.5669 24.3077 41.6383 24.69L43.39 33.9533C43.5144 34.6119 43.8345 35.2177 44.3084 35.6916C44.7823 36.1655 45.3881 36.4856 46.0467 36.61L55.31 38.3617C55.6923 38.4331 56.0376 38.636 56.2861 38.9352C56.5346 39.2344 56.6707 39.6111 56.6707 40C56.6707 40.3889 56.5346 40.7656 56.2861 41.0648C56.0376 41.364 55.6923 41.5669 55.31 41.6383L46.0467 43.39C45.3881 43.5144 44.7823 43.8345 44.3084 44.3084C43.8345 44.7823 43.5144 45.3881 43.39 46.0467L41.6383 55.31C41.5669 55.6923 41.364 56.0376 41.0648 56.2861C40.7656 56.5346 40.3889 56.6707 40 56.6707C39.6111 56.6707 39.2344 56.5346 38.9352 56.2861C38.636 56.0376 38.4331 55.6923 38.3617 55.31L36.61 46.0467C36.4856 45.3881 36.1655 44.7823 35.6916 44.3084C35.2177 43.8345 34.6119 43.5144 33.9533 43.39L24.69 41.6383C24.3077 41.5669 23.9624 41.364 23.7139 41.0648C23.4654 40.7656 23.3293 40.3889 23.3293 40C23.3293 39.6111 23.4654 39.2344 23.7139 38.9352C23.9624 38.636 24.3077 38.4331 24.69 38.3617L33.9533 36.61C34.6119 36.4856 35.2177 36.1655 35.6916 35.6916C36.1655 35.2177 36.4856 34.6119 36.61 33.9533L38.3617 24.69Z" stroke="#0178FB" stroke-width="3.33333" stroke-linecap="round" stroke-linejoin="round"/>
<path d="M53.3333 23.3333V29.9999" stroke="#0178FB" stroke-width="3.33333" stroke-linecap="round" stroke-linejoin="round"/>
<path d="M56.6667 26.6667H50" stroke="#0178FB" stroke-width="3.33333" stroke-linecap="round" stroke-linejoin="round"/>
<path d="M26.6666 56.6667C28.5076 56.6667 30 55.1743 30 53.3333C30 51.4924 28.5076 50 26.6666 50C24.8257 50 23.3333 51.4924 23.3333 53.3333C23.3333 55.1743 24.8257 56.6667 26.6666 56.6667Z" stroke="#0178FB" stroke-width="3.33333" stroke-linecap="round" stroke-linejoin="round"/>
<defs>
<linearGradient id="paint0_linear_633_2663" x1="40" y1="0" x2="40" y2="80" gradientUnits="userSpaceOnUse">
<stop stop-color="#E8F2FF"/>
<stop offset="1" stop-color="#F1F1F1"/>
</linearGradient>
</defs>
</svg>
