<svg width="32" height="32" viewBox="0 0 32 32" fill="none" xmlns="http://www.w3.org/2000/svg">
<path d="M0 4C0 1.79086 1.79086 0 4 0H28C30.2091 0 32 1.79086 32 4V28C32 30.2091 30.2091 32 28 32H4C1.79086 32 0 30.2091 0 28V4Z" fill="#0178FB"/>
<path d="M7 11C7 8.79086 8.79086 7 11 7C13.2091 7 15 8.79086 15 11C15 13.2091 13.2091 15 11 15C8.79086 15 7 13.2091 7 11Z" fill="white"/>
<path d="M17 11C17 8.79086 18.7909 7 21 7C23.2091 7 25 8.79086 25 11C25 13.2091 23.2091 15 21 15C18.7909 15 17 13.2091 17 11Z" fill="white"/>
<path d="M7 21C7 18.7909 8.79086 17 11 17C13.2091 17 15 18.7909 15 21C15 23.2091 13.2091 25 11 25C8.79086 25 7 23.2091 7 21Z" fill="white"/>
<path d="M17 21C17 18.7909 18.7909 17 21 17C23.2091 17 25 18.7909 25 21C25 23.2091 23.2091 25 21 25C18.7909 25 17 23.2091 17 21Z" fill="white"/>
</svg>
