<svg width="32" height="32" viewBox="0 0 32 32" fill="none" xmlns="http://www.w3.org/2000/svg">
<path d="M0 10C0 4.47715 4.47715 0 10 0H22C27.5228 0 32 4.47715 32 10V22C32 27.5228 27.5228 32 22 32H10C4.47715 32 0 27.5228 0 22V10Z" fill="#DBEAFE"/>
<path d="M11 24.3333C10.558 24.3333 10.1341 24.1577 9.8215 23.8452C9.50894 23.5326 9.33334 23.1087 9.33334 22.6667V9.33333C9.33334 8.8913 9.50894 8.46738 9.8215 8.15481C10.1341 7.84225 10.558 7.66666 11 7.66666H17.6667C17.9305 7.66623 18.1917 7.71799 18.4355 7.81897C18.6792 7.91994 18.9005 8.06813 19.0867 8.25499L22.0767 11.245C22.264 11.4312 22.4127 11.6528 22.5139 11.8968C22.6152 12.1408 22.6671 12.4025 22.6667 12.6667V22.6667C22.6667 23.1087 22.4911 23.5326 22.1785 23.8452C21.866 24.1577 21.442 24.3333 21 24.3333H11Z" stroke="#0178FB" stroke-width="1.66667" stroke-linecap="round" stroke-linejoin="round"/>
<path d="M17.6667 7.66666V11.8333C17.6667 12.0543 17.7545 12.2663 17.9107 12.4226C18.067 12.5789 18.279 12.6667 18.5 12.6667H22.6667" stroke="#0178FB" stroke-width="1.66667" stroke-linecap="round" stroke-linejoin="round"/>
<path d="M14.3333 13.5H12.6667" stroke="#0178FB" stroke-width="1.66667" stroke-linecap="round" stroke-linejoin="round"/>
<path d="M19.3333 16.8333H12.6667" stroke="#0178FB" stroke-width="1.66667" stroke-linecap="round" stroke-linejoin="round"/>
<path d="M19.3333 20.1667H12.6667" stroke="#0178FB" stroke-width="1.66667" stroke-linecap="round" stroke-linejoin="round"/>
</svg>
