<svg width="32" height="32" viewBox="0 0 32 32" fill="none" xmlns="http://www.w3.org/2000/svg">
<path d="M0 10C0 4.47715 4.47715 0 10 0H22C27.5228 0 32 4.47715 32 10V22C32 27.5228 27.5228 32 22 32H10C4.47715 32 0 27.5228 0 22V10Z" fill="#F3E8FF"/>
<path d="M12.6667 7.66666V11" stroke="#9810FA" stroke-width="1.66667" stroke-linecap="round" stroke-linejoin="round"/>
<path d="M19.3333 7.66666V11" stroke="#9810FA" stroke-width="1.66667" stroke-linecap="round" stroke-linejoin="round"/>
<path d="M21.8333 9.33334H10.1667C9.24619 9.33334 8.5 10.0795 8.5 11V22.6667C8.5 23.5872 9.24619 24.3333 10.1667 24.3333H21.8333C22.7538 24.3333 23.5 23.5872 23.5 22.6667V11C23.5 10.0795 22.7538 9.33334 21.8333 9.33334Z" stroke="#9810FA" stroke-width="1.66667" stroke-linecap="round" stroke-linejoin="round"/>
<path d="M8.5 14.3333H23.5" stroke="#9810FA" stroke-width="1.66667" stroke-linecap="round" stroke-linejoin="round"/>
</svg>
