<svg width="32" height="32" viewBox="0 0 32 32" fill="none" xmlns="http://www.w3.org/2000/svg">
<path d="M0 10C0 4.47715 4.47715 0 10 0H22C27.5228 0 32 4.47715 32 10V22C32 27.5228 27.5228 32 22 32H10C4.47715 32 0 27.5228 0 22V10Z" fill="#DCFCE7"/>
<path d="M14.3333 18.2167V19.5717C14.3302 19.8572 14.2537 20.1371 14.1113 20.3846C13.9689 20.6321 13.7653 20.8388 13.52 20.985C12.9993 21.3707 12.5757 21.8725 12.2829 22.4506C11.9901 23.0286 11.8362 23.667 11.8333 24.315" stroke="#19BD66" stroke-width="1.66667" stroke-linecap="round" stroke-linejoin="round"/>
<path d="M17.6667 18.2167V19.5717C17.6698 19.8572 17.7463 20.1371 17.8887 20.3846C18.0311 20.6321 18.2347 20.8388 18.48 20.985C19.0007 21.3707 19.4243 21.8725 19.7171 22.4506C20.0099 23.0286 20.1638 23.667 20.1667 24.315" stroke="#19BD66" stroke-width="1.66667" stroke-linecap="round" stroke-linejoin="round"/>
<path d="M21 13.5H22.25C22.8025 13.5 23.3324 13.2805 23.7231 12.8898C24.1138 12.4991 24.3333 11.9692 24.3333 11.4166C24.3333 10.8641 24.1138 10.3342 23.7231 9.94351C23.3324 9.55281 22.8025 9.33331 22.25 9.33331H21" stroke="#19BD66" stroke-width="1.66667" stroke-linecap="round" stroke-linejoin="round"/>
<path d="M9.33334 24.3333H22.6667" stroke="#19BD66" stroke-width="1.66667" stroke-linecap="round" stroke-linejoin="round"/>
<path d="M11 13.5C11 14.8261 11.5268 16.0979 12.4645 17.0356C13.4021 17.9732 14.6739 18.5 16 18.5C17.3261 18.5 18.5979 17.9732 19.5355 17.0356C20.4732 16.0979 21 14.8261 21 13.5V8.50002C21 8.27901 20.9122 8.06704 20.7559 7.91076C20.5996 7.75448 20.3877 7.66669 20.1667 7.66669H11.8333C11.6123 7.66669 11.4004 7.75448 11.2441 7.91076C11.0878 8.06704 11 8.27901 11 8.50002V13.5Z" stroke="#19BD66" stroke-width="1.66667" stroke-linecap="round" stroke-linejoin="round"/>
<path d="M11 13.5H9.74999C9.19746 13.5 8.66755 13.2805 8.27685 12.8898C7.88615 12.4991 7.66666 11.9692 7.66666 11.4166C7.66666 10.8641 7.88615 10.3342 8.27685 9.94351C8.66755 9.55281 9.19746 9.33331 9.74999 9.33331H11" stroke="#19BD66" stroke-width="1.66667" stroke-linecap="round" stroke-linejoin="round"/>
</svg>
